<?xml version="1.0" standalone="no"?>
<!DOCTYPE svg PUBLIC "-//W3C//DTD SVG 20010904//EN"
 "http://www.w3.org/TR/2001/REC-SVG-20010904/DTD/svg10.dtd">
<svg version="1.0" xmlns="http://www.w3.org/2000/svg"
 width="3977.000000pt" height="2000.000000pt" viewBox="0 0 3977.000000 2000.000000"
 preserveAspectRatio="xMidYMid meet">

<g transform="translate(0.000000,2000.000000) scale(0.100000,-0.100000)"
fill="#000000" stroke="none">
<path d="M13555 18990 c-417 -31 -754 -139 -1055 -339 -196 -129 -316 -248
-432 -426 -72 -111 -167 -295 -202 -393 -49 -137 -96 -436 -96 -607 0 -73 19
-187 33 -202 3 -3 21 -3 39 1 l34 6 -4 159 c-5 181 7 258 64 430 195 588 683
976 1389 1107 140 26 532 31 710 9 614 -74 1076 -360 1425 -880 237 -354 383
-757 445 -1225 9 -69 19 -228 22 -355 22 -901 -233 -1613 -771 -2150 -204
-204 -395 -340 -651 -465 -365 -179 -740 -260 -1200 -260 -755 0 -1375 246
-1866 741 -362 364 -597 839 -698 1409 -74 414 -80 917 -16 1353 116 799 394
1352 850 1688 l83 62 -21 33 c-12 19 -26 34 -31 34 -17 0 -209 -111 -321 -186
-316 -210 -600 -499 -796 -810 -361 -572 -500 -1302 -393 -2059 82 -586 333
-1103 738 -1522 458 -474 1029 -781 1697 -912 238 -46 400 -62 690 -68 544
-11 979 56 1414 218 703 262 1318 806 1630 1444 144 295 224 571 267 920 17
140 17 591 0 740 -45 394 -132 705 -287 1020 -142 291 -312 524 -556 760 -363
351 -775 567 -1275 669 -249 51 -609 74 -859 56z"/>
<path d="M22967 18993 c-4 -3 -7 -18 -7 -33 0 -79 -78 -300 -230 -650 -54
-124 -495 -1170 -980 -2325 -485 -1155 -902 -2138 -926 -2185 -143 -271 -414
-450 -684 -450 l-60 0 0 -40 0 -40 805 0 805 0 0 39 0 38 -82 6 c-46 3 -100
12 -122 18 -90 30 -192 166 -203 272 -3 29 2 83 10 122 11 53 352 941 542
1413 l17 42 1082 0 1081 0 263 -698 c144 -384 267 -725 273 -758 23 -125 -8
-235 -91 -322 -56 -58 -119 -84 -222 -90 l-88 -5 0 -38 0 -39 905 0 905 0 0
40 0 40 -57 0 c-286 0 -551 176 -692 460 -21 41 -518 1226 -1106 2633 l-1069
2557 -31 0 c-18 0 -35 -3 -38 -7z m477 -2264 l473 -1264 -980 -3 c-539 -1
-982 -1 -984 1 -2 2 223 581 499 1285 374 952 505 1277 511 1263 5 -10 221
-587 481 -1282z"/>
<path d="M17074 18849 c3 -17 6 -35 6 -40 0 -5 39 -9 88 -9 106 -1 158 -12
241 -53 132 -64 243 -214 271 -362 8 -44 10 -684 8 -2340 l-3 -2280 -27 -69
c-85 -220 -269 -346 -505 -346 l-83 0 0 -40 0 -40 880 0 880 0 0 40 0 40 -80
0 c-102 0 -169 14 -250 53 -81 40 -183 139 -227 223 -67 126 -63 -59 -63 2602
l0 2412 523 0 c411 0 541 -3 612 -15 435 -71 731 -386 837 -894 15 -74 21
-150 25 -335 6 -265 -1 -336 -48 -480 -111 -339 -321 -585 -624 -731 -219
-106 -373 -144 -620 -152 -128 -4 -199 -1 -288 11 -64 9 -124 19 -132 22 -12
5 -15 -3 -15 -35 l0 -42 75 -34 c207 -94 467 -146 745 -147 169 -1 237 11 442
79 265 87 457 202 639 383 318 314 470 747 430 1219 -27 313 -99 539 -242 756
-71 108 -250 285 -367 363 -215 143 -467 229 -764 261 -63 7 -503 11 -1234 11
l-1136 0 6 -31z"/>
<path d="M26340 18840 l0 -40 93 0 c159 0 261 -41 369 -150 79 -79 131 -176
147 -278 8 -48 11 -706 9 -2337 l-3 -2270 -27 -69 c-85 -220 -269 -346 -505
-346 l-83 0 0 -40 0 -40 1666 2 1666 3 229 640 c126 352 229 643 229 648 0 4
-17 7 -38 7 -37 0 -39 -2 -62 -57 -41 -102 -140 -291 -202 -386 -232 -353
-466 -511 -863 -584 -77 -14 -192 -17 -787 -20 l-698 -4 0 2418 c0 2669 -5
2470 63 2597 66 123 182 218 311 252 28 8 95 14 149 14 l97 0 0 40 0 40 -880
0 -880 0 0 -40z"/>
<path d="M37965 11214 c-16 -2 -68 -9 -115 -14 -301 -39 -505 -107 -754 -253
-55 -32 -137 -76 -182 -98 -46 -21 -197 -107 -336 -191 -272 -163 -554 -312
-657 -347 -94 -32 -170 -48 -321 -68 -127 -16 -516 -18 -6679 -20 -4495 -2
-6547 0 -6556 7 -7 6 -18 32 -25 58 -16 57 -61 150 -103 212 -177 259 -503
392 -787 321 -134 -33 -476 -160 -660 -244 -30 -14 -116 -52 -190 -85 -159
-70 -227 -102 -454 -211 -93 -45 -170 -81 -172 -81 -2 0 -66 30 -141 66 -251
121 -542 254 -673 309 -36 15 -89 38 -118 51 -29 13 -55 24 -58 24 -3 0 -20 7
-37 15 -92 42 -329 125 -446 155 -177 47 -390 9 -561 -98 -65 -41 -180 -150
-221 -208 -44 -64 -84 -143 -104 -204 -9 -30 -21 -62 -25 -70 -6 -13 -509 -15
-4415 -17 -2425 -2 -4411 -5 -4413 -8 -11 -10 -4122 -5 -4270 5 -192 14 -339
37 -432 67 -151 50 -344 151 -695 362 -104 63 -253 147 -331 187 -78 39 -159
83 -181 97 -187 118 -418 201 -668 241 -449 71 -789 40 -1072 -98 -384 -187
-640 -513 -717 -912 -33 -171 -12 -434 49 -609 24 -69 99 -199 155 -269 75
-93 232 -228 317 -273 169 -89 379 -128 653 -121 275 8 318 25 691 274 301
200 293 197 539 240 122 22 239 59 268 86 86 82 -71 218 -360 312 -175 57
-231 68 -321 64 -148 -6 -247 -72 -445 -299 -61 -69 -134 -147 -163 -172 -132
-115 -264 -148 -449 -112 -159 31 -212 56 -300 145 -83 83 -124 159 -178 330
-26 84 -59 350 -42 350 5 0 14 -26 20 -57 54 -265 188 -483 345 -559 58 -28
64 -29 210 -29 161 1 201 9 311 61 38 18 85 55 131 100 59 59 81 91 122 176
97 201 119 304 86 411 -57 188 -188 337 -334 381 -72 21 -212 21 -277 0 -131
-44 -224 -160 -224 -280 0 -72 56 -133 160 -174 116 -46 161 -30 216 76 32 62
54 79 91 69 78 -19 69 -253 -16 -386 -93 -148 -258 -153 -402 -12 -91 88 -139
233 -142 428 -2 130 4 153 64 240 129 186 353 315 600 345 81 10 113 10 208
-4 242 -36 446 -146 691 -373 58 -54 123 -112 145 -129 165 -126 613 -341 910
-435 178 -57 327 -72 920 -89 201 -6 2792 -10 6641 -10 l6311 0 12 -40 c91
-304 382 -533 697 -548 164 -7 347 47 784 233 135 57 172 73 285 125 33 15 83
38 110 50 28 13 102 47 165 78 210 100 322 152 325 152 1 0 87 -41 191 -91
104 -50 207 -99 229 -109 212 -96 362 -163 425 -189 41 -18 84 -36 95 -41 101
-47 411 -158 530 -190 346 -93 740 126 877 487 l31 83 4146 1 c2280 1 5208 5
6506 9 2935 10 2952 11 3280 121 262 89 695 298 830 402 22 17 87 74 145 127
144 132 194 171 294 234 102 64 206 109 319 138 107 27 310 30 407 4 238 -62
439 -210 532 -390 30 -60 30 -60 25 -195 -7 -200 -46 -317 -136 -410 -114
-117 -281 -135 -367 -39 -67 74 -105 177 -106 291 -2 151 75 200 136 87 15
-27 39 -64 53 -81 25 -29 30 -31 82 -27 110 8 233 90 247 164 19 102 -60 235
-169 288 -120 58 -269 56 -393 -4 -147 -72 -285 -290 -287 -455 -1 -72 23
-146 99 -303 45 -92 67 -125 122 -181 65 -66 125 -106 193 -130 115 -41 310
-53 405 -25 182 53 313 237 394 550 17 65 33 120 36 123 6 6 -4 -123 -17 -214
-43 -299 -166 -516 -339 -597 -105 -49 -277 -76 -380 -59 -138 22 -238 99
-454 345 -140 159 -229 222 -353 246 -88 18 -162 4 -388 -72 -287 -96 -427
-232 -322 -312 39 -30 174 -67 332 -92 145 -23 192 -46 448 -218 253 -170 355
-227 462 -258 72 -20 101 -23 285 -22 222 0 315 12 465 61 112 36 181 73 267
142 155 125 274 275 334 421 83 204 103 509 48 724 -120 470 -504 827 -1014
942 -56 12 -133 17 -300 19 -124 2 -238 1 -255 -1z m-19267 -700 c174 -48 343
-120 699 -294 253 -124 275 -140 254 -186 -14 -31 -375 -212 -678 -340 -125
-53 -269 -100 -345 -113 -129 -23 -272 26 -385 133 -47 43 -74 79 -101 135
-37 76 -37 76 -37 206 0 125 1 132 32 197 34 73 114 165 178 206 107 69 258
91 383 56z m2797 5 c158 -43 291 -175 341 -338 8 -25 14 -82 14 -126 0 -135
-46 -243 -144 -340 -72 -72 -148 -111 -254 -131 -106 -20 -185 -4 -422 88 -41
16 -84 33 -95 38 -11 5 -72 32 -135 61 -161 72 -471 228 -492 246 -10 9 -18
26 -18 38 0 32 18 45 205 138 350 175 570 269 765 325 48 14 186 14 235 1z"/>
<path d="M15280 7674 c-54 -7 -200 -34 -242 -45 -36 -9 -38 -12 -38 -50 l0
-40 103 7 c248 16 518 -47 750 -176 142 -78 258 -169 407 -319 201 -201 378
-448 553 -767 l66 -120 -254 -2205 c-257 -2229 -260 -2252 -310 -2350 -49 -97
-146 -190 -252 -244 -89 -44 -143 -56 -275 -62 l-128 -6 0 -38 0 -39 780 0
780 0 0 34 0 34 -97 4 c-144 6 -236 57 -299 164 -52 88 -60 -35 132 2136 99
1109 182 2014 186 2010 3 -4 470 -1015 1037 -2247 l1030 -2240 43 -3 43 -3 17
93 c21 111 82 308 148 473 64 158 1758 3987 1771 3999 6 6 9 4 9 -7 0 -57 506
-3697 530 -3812 101 -484 298 -914 577 -1260 203 -252 425 -440 655 -556 l78
-39 362 0 363 1 -85 33 c-576 221 -1000 704 -1242 1416 -46 134 -108 370 -137
520 -11 58 -192 1196 -401 2530 -209 1334 -383 2431 -385 2438 -2 6 -19 12
-38 12 l-33 0 -1076 -2412 c-592 -1327 -1080 -2412 -1083 -2411 -4 1 -440 939
-970 2085 -529 1146 -977 2112 -995 2148 -95 189 -267 442 -413 609 -153 173
-387 364 -592 480 -176 101 -453 189 -661 210 -117 12 -364 21 -414 15z"/>
<path d="M28935 6965 c-106 -45 -514 -110 -775 -125 -96 -5 -696 -10 -1334
-10 l-1158 0 6 -31 c3 -17 6 -35 6 -40 0 -5 42 -9 93 -9 156 0 266 -42 371
-141 73 -68 119 -148 136 -234 8 -44 10 -676 8 -2360 l-3 -2300 -27 -69 c-85
-220 -269 -346 -505 -346 l-83 0 0 -40 0 -40 1666 2 1666 3 229 640 c126 352
229 643 229 648 0 4 -17 7 -38 7 -37 0 -39 -2 -62 -57 -41 -102 -140 -291
-202 -386 -232 -353 -466 -511 -863 -584 -77 -14 -192 -17 -787 -20 l-698 -4
0 1200 0 1201 678 0 c448 0 698 -4 738 -11 127 -23 238 -110 291 -226 23 -49
28 -76 31 -170 l5 -113 38 0 39 0 0 635 0 635 -39 0 -38 0 -5 -107 c-4 -91 -9
-118 -32 -170 -35 -77 -122 -163 -203 -201 l-58 -27 -722 -3 -723 -3 0 1236 0
1235 853 0 c840 0 854 0 915 -21 130 -44 252 -168 292 -296 15 -49 20 -93 20
-179 l0 -114 45 0 45 0 0 499 c0 275 -3 502 -7 504 -5 2 -21 -1 -38 -8z"/>
<path d="M39095 6965 c-106 -45 -514 -110 -775 -125 -96 -5 -696 -10 -1334
-10 l-1158 0 6 -31 c3 -17 6 -35 6 -40 0 -5 42 -9 93 -9 156 0 266 -42 371
-141 73 -68 119 -148 136 -234 8 -44 10 -676 8 -2360 l-3 -2300 -27 -69 c-85
-220 -269 -346 -505 -346 l-83 0 0 -40 0 -40 1666 2 1666 3 229 640 c126 352
229 643 229 648 0 4 -17 7 -38 7 -37 0 -39 -2 -62 -57 -41 -102 -140 -291
-202 -386 -232 -353 -466 -511 -863 -584 -77 -14 -192 -17 -787 -20 l-698 -4
0 1200 0 1201 678 0 c448 0 698 -4 738 -11 127 -23 238 -110 291 -226 23 -49
28 -76 31 -170 l5 -113 38 0 39 0 0 635 0 635 -39 0 -38 0 -5 -107 c-4 -91 -9
-118 -32 -170 -35 -77 -122 -163 -203 -201 l-58 -27 -722 -3 -723 -3 0 1236 0
1235 853 0 c840 0 854 0 915 -21 130 -44 252 -168 292 -296 15 -49 20 -93 20
-179 l0 -114 45 0 45 0 0 499 c0 275 -3 502 -7 504 -5 2 -21 -1 -38 -8z"/>
<path d="M1819 6940 c-357 -34 -627 -157 -852 -387 -190 -193 -310 -421 -369
-697 -28 -135 -31 -408 -5 -538 49 -248 169 -475 348 -659 35 -36 426 -402
869 -812 585 -542 819 -765 858 -817 208 -284 248 -714 98 -1054 -82 -186
-268 -381 -466 -489 -235 -129 -620 -173 -895 -103 -384 98 -666 405 -758 826
-16 75 -21 132 -21 272 l-1 178 -36 0 -36 0 -21 -72 c-33 -113 -61 -235 -78
-349 -18 -118 -21 -508 -5 -625 9 -65 12 -71 58 -112 173 -156 428 -266 779
-337 496 -100 946 -64 1277 101 377 190 635 533 727 969 28 130 38 411 20 551
-37 296 -144 541 -318 726 -37 39 -438 414 -892 834 -532 491 -845 788 -883
836 -138 176 -206 394 -194 623 8 144 37 257 98 380 113 230 322 405 574 481
78 23 112 27 260 31 146 4 185 2 275 -17 315 -64 550 -257 639 -525 21 -63 33
-124 38 -185 l6 -90 39 0 38 0 -2 493 -3 492 -190 6 c-112 3 -225 13 -275 22
-212 42 -533 63 -701 47z"/>
<path d="M6543 6939 c-783 -47 -1421 -324 -1903 -825 -491 -511 -739 -1149
-766 -1969 -19 -567 84 -1092 300 -1530 136 -276 286 -485 501 -700 441 -442
952 -686 1635 -782 178 -25 682 -25 860 0 576 82 1017 282 1391 634 128 120
306 340 397 488 l31 50 45 600 c26 330 46 612 46 628 0 23 -4 27 -29 27 -26 0
-30 -4 -35 -37 -64 -433 -133 -695 -251 -966 -230 -525 -643 -898 -1195 -1081
-271 -89 -475 -120 -800 -120 -265 -1 -373 12 -598 70 -560 143 -1020 504
-1330 1044 -271 473 -402 1121 -362 1795 37 637 203 1152 502 1557 369 501
856 787 1468 863 165 20 501 20 657 0 370 -49 643 -150 942 -348 151 -100 351
-302 454 -457 110 -167 205 -376 257 -569 10 -38 13 -41 45 -41 23 0 35 5 35
14 0 17 -148 1073 -155 1101 -8 35 -283 192 -498 285 -371 159 -741 243 -1187
270 -183 11 -263 11 -457 -1z"/>
<path d="M9550 6791 l0 -39 118 -4 c89 -4 130 -10 171 -27 159 -65 282 -208
316 -368 13 -58 15 -404 15 -2329 0 -2235 0 -2262 -20 -2340 -26 -99 -68 -170
-147 -244 -103 -97 -218 -140 -373 -140 l-80 0 0 -40 0 -40 880 0 880 0 0 40
0 40 -82 0 c-163 0 -288 50 -394 156 -68 68 -118 158 -134 243 -6 34 -10 445
-10 1112 l0 1059 1640 0 1640 0 0 -1058 c0 -1165 3 -1112 -62 -1236 -44 -84
-149 -186 -229 -224 -81 -38 -149 -52 -249 -52 l-80 0 0 -40 0 -40 880 0 880
0 0 40 0 40 -80 0 c-165 0 -277 44 -385 154 -79 80 -119 152 -141 254 -21 100
-21 4534 0 4633 21 98 69 184 145 260 107 107 209 149 369 149 l92 0 0 40 0
40 -880 0 -880 0 0 -40 0 -40 93 0 c51 0 119 -7 152 -15 179 -47 318 -188 360
-366 13 -55 15 -217 15 -1156 l0 -1093 -1640 0 -1640 0 0 1088 c0 934 2 1096
15 1151 42 177 190 331 360 376 33 8 101 15 152 15 l93 0 0 40 0 40 -880 0
-880 0 0 -39z"/>
<path d="M23280 6791 l0 -39 118 -4 c89 -4 130 -10 171 -27 165 -67 293 -221
320 -388 9 -50 11 -684 9 -2343 l-3 -2275 -27 -69 c-85 -220 -269 -346 -505
-346 l-83 0 0 -40 0 -40 880 0 880 0 0 40 0 40 -80 0 c-159 0 -270 43 -381
147 -77 73 -132 169 -149 262 -6 35 -10 853 -10 2320 0 1986 2 2274 15 2330
42 177 190 331 360 376 33 8 101 15 152 15 l93 0 0 40 0 40 -880 0 -880 0 0
-39z"/>
<path d="M29834 6799 c3 -17 6 -35 6 -40 0 -5 40 -9 88 -9 152 0 268 -45 380
-145 68 -62 115 -144 132 -230 8 -44 10 -676 8 -2360 l-3 -2300 -27 -69 c-85
-220 -269 -346 -505 -346 l-83 0 0 -40 0 -41 1523 4 c1673 4 1591 1 1917 67
570 115 1038 369 1431 777 241 251 418 532 544 863 218 576 244 1374 64 1999
-173 603 -545 1101 -1085 1454 -333 218 -713 353 -1194 424 -104 15 -267 17
-1659 20 l-1544 4 7 -32z m3136 -237 c493 -94 842 -277 1165 -610 385 -398
608 -910 676 -1562 19 -173 16 -585 -5 -760 -78 -660 -321 -1193 -717 -1575
-320 -308 -694 -491 -1164 -568 -124 -20 -170 -21 -1042 -24 l-913 -4 0 2566
0 2566 943 -4 c919 -4 945 -4 1057 -25z"/>
</g>
</svg>
